<?xml version="1.0" standalone="no"?>
<!DOCTYPE svg PUBLIC "-//W3C//DTD SVG 20010904//EN"
 "http://www.w3.org/TR/2001/REC-SVG-20010904/DTD/svg10.dtd">
<svg version="1.0" xmlns="http://www.w3.org/2000/svg"
 width="32.000000pt" height="32.000000pt" viewBox="0 0 32.000000 32.000000"
 preserveAspectRatio="xMidYMid meet">

<g transform="translate(0.000000,32.000000) scale(0.100000,-0.100000)"
fill="#000000" stroke="none">
<path d="M83 280 c-18 -10 -39 -33 -48 -49 -23 -46 -18 -51 8 -7 12 22 28 41
35 44 11 3 11 1 1 -17 -11 -17 -11 -23 0 -33 10 -9 12 -9 7 -1 -4 8 10 20 39
33 25 11 43 25 40 30 -4 6 7 8 26 6 17 -2 35 -10 40 -17 8 -14 4 -63 -8 -82
-3 -5 5 -18 17 -27 23 -18 24 -19 8 -59 -12 -29 -13 -41 -5 -41 7 -1 -4 -9
-23 -20 -42 -23 -32 -27 11 -5 89 47 93 193 6 245 -42 26 -112 26 -154 0z
m192 -68 c-3 -3 -11 0 -18 7 -9 10 -8 11 6 5 10 -3 15 -9 12 -12z"/>
<path d="M112 198 c-18 -18 -15 -63 8 -83 20 -19 70 -14 70 6 0 6 -9 9 -20 6
-26 -7 -53 15 -48 39 2 13 12 19 33 20 17 0 32 5 35 10 8 14 -63 17 -78 2z"/>
<path d="M20 127 c-1 -33 72 -108 105 -107 6 1 -7 10 -27 21 -22 11 -46 35
-57 57 -11 20 -20 33 -21 29z"/>
</g>
</svg>
